# Blender 3.4.1
# www.blender.org
mtllib heart.mtl
o Cube
v 0.482244 0.853714 0.918185
v 0.519530 0.592707 1.127922
v 0.444957 0.149928 1.239782
v 0.314454 -0.288191 1.183852
v 0.227488 -0.616278 1.035707
v 0.908620 0.741774 0.812799
v 0.905636 0.413126 0.948686
v 0.830377 0.044920 0.941640
v 0.671772 -0.291594 0.867734
v 0.000000 0.562004 0.894881
v -0.482244 0.853714 0.918185
v -0.519530 0.592707 1.127922
v -0.444957 0.149928 1.239782
v -0.314454 -0.288191 1.183852
v -0.227488 -0.616278 1.035707
v 0.000000 0.217102 1.211817
v 0.000000 -0.272285 1.179191
v -0.908620 0.741774 0.812799
v -0.905636 0.413126 0.948686
v -0.830377 0.044920 0.941640
v -0.671772 -0.291594 0.867734
v 0.436274 -0.630934 0.633874
v 0.976636 0.005798 0.633874
v 1.076201 0.521723 0.633874
v 0.468261 0.984217 0.633874
v 0.874901 0.893192 0.633874
v 0.151324 0.839731 0.633874
v 0.482244 0.853714 0.349563
v 0.519530 0.592707 0.139825
v 0.444957 0.149928 0.027965
v 0.314454 -0.288191 0.083895
v 0.227488 -0.616278 0.232040
v 0.908620 0.741774 0.454949
v 0.905636 0.413126 0.319061
v 0.830377 0.044920 0.326108
v 0.671772 -0.291594 0.400014
v -0.436274 -0.630934 0.633874
v 0.000000 0.562004 0.372867
v -0.976636 0.005798 0.633874
v -1.076201 0.521723 0.633874
v -0.468261 0.984217 0.633874
v -0.874901 0.893192 0.633874
v 0.000000 0.664543 0.633874
v -0.151324 0.839731 0.633874
v -0.482244 0.853714 0.349563
v -0.519530 0.592707 0.139825
v -0.444957 0.149928 0.027965
v -0.314454 -0.288191 0.083895
v -0.227488 -0.616278 0.232040
v 0.000000 0.217102 0.055930
v 0.000000 -0.272285 0.088556
v 0.000000 -0.987316 0.633874
v -0.908620 0.741774 0.454949
v -0.905636 0.413126 0.319061
v -0.830377 0.044920 0.326108
v -0.671772 -0.291594 0.400014
vn -0.7330 0.6331 0.2487
vn -0.3800 0.8334 0.4013
vn -0.4645 0.7276 0.5049
vn 0.2001 0.8941 0.4006
vn 0.3376 0.7489 0.5702
vn -0.3687 0.5497 0.7496
vn 0.3377 0.6184 0.7096
vn -0.3472 0.6345 0.6905
vn 0.5179 0.3228 0.7922
vn -0.0233 0.2486 0.9683
vn -0.0726 -0.0663 0.9952
vn -0.0208 -0.1205 0.9925
vn 0.4700 0.1410 0.8713
vn 0.8554 0.4635 0.2311
vn 0.8283 0.2077 0.5204
vn 0.5831 -0.1345 0.8012
vn 0.5442 -0.2638 0.7964
vn 0.8898 -0.1717 0.4228
vn 0.8777 -0.1878 0.4410
vn 0.5960 -0.4299 0.6783
vn 0.7776 -0.4605 0.4281
vn -0.0340 -0.4038 0.9142
vn -0.0000 -0.7347 0.6784
vn 0.7515 -0.6378 0.1687
vn 0.5868 -0.4573 0.6682
vn 0.6354 -0.6857 0.3551
vn 0.5958 -0.7294 0.3362
vn 0.7330 0.6331 0.2487
vn 0.3800 0.8334 0.4013
vn 0.4645 0.7276 0.5049
vn -0.2001 0.8941 0.4006
vn -0.3376 0.7489 0.5702
vn 0.3687 0.5497 0.7496
vn -0.3377 0.6184 0.7096
vn 0.3472 0.6345 0.6905
vn -0.5179 0.3228 0.7922
vn 0.0233 0.2486 0.9683
vn 0.0726 -0.0663 0.9952
vn 0.0208 -0.1205 0.9925
vn -0.4700 0.1410 0.8713
vn -0.8554 0.4635 0.2311
vn -0.8283 0.2077 0.5204
vn -0.5831 -0.1345 0.8012
vn -0.5442 -0.2638 0.7964
vn -0.8898 -0.1717 0.4228
vn -0.8777 -0.1878 0.4410
vn -0.5960 -0.4299 0.6783
vn -0.7776 -0.4605 0.4281
vn 0.0340 -0.4038 0.9142
vn -0.7515 -0.6378 0.1687
vn -0.5868 -0.4573 0.6682
vn -0.6354 -0.6857 0.3551
vn -0.5958 -0.7294 0.3362
vn -0.0000 -0.3850 0.9229
vn -0.7330 0.6331 -0.2487
vn -0.3800 0.8334 -0.4013
vn -0.4645 0.7276 -0.5049
vn 0.2001 0.8941 -0.4006
vn 0.3376 0.7489 -0.5702
vn -0.3687 0.5497 -0.7496
vn 0.3377 0.6184 -0.7096
vn -0.3472 0.6345 -0.6905
vn 0.5179 0.3228 -0.7922
vn -0.0233 0.2486 -0.9683
vn -0.0726 -0.0663 -0.9952
vn -0.0208 -0.1205 -0.9925
vn 0.4700 0.1410 -0.8713
vn 0.8554 0.4635 -0.2311
vn 0.8283 0.2077 -0.5204
vn 0.5831 -0.1345 -0.8012
vn 0.5442 -0.2638 -0.7964
vn 0.8898 -0.1717 -0.4228
vn 0.8777 -0.1878 -0.4410
vn 0.5960 -0.4299 -0.6783
vn 0.7776 -0.4605 -0.4281
vn -0.0340 -0.4038 -0.9142
vn -0.0000 -0.7347 -0.6784
vn 0.7515 -0.6378 -0.1687
vn 0.5868 -0.4573 -0.6682
vn 0.6354 -0.6857 -0.3551
vn 0.5958 -0.7294 -0.3362
vn 0.7330 0.6331 -0.2487
vn 0.3800 0.8334 -0.4013
vn 0.4645 0.7276 -0.5049
vn -0.2001 0.8941 -0.4006
vn -0.3376 0.7489 -0.5702
vn 0.3687 0.5497 -0.7496
vn -0.3377 0.6184 -0.7096
vn 0.3472 0.6345 -0.6905
vn -0.5179 0.3228 -0.7922
vn 0.0233 0.2486 -0.9683
vn 0.0726 -0.0663 -0.9952
vn 0.0208 -0.1205 -0.9925
vn -0.4700 0.1410 -0.8713
vn -0.8554 0.4635 -0.2311
vn -0.8283 0.2077 -0.5204
vn -0.5831 -0.1345 -0.8012
vn -0.5442 -0.2638 -0.7964
vn -0.8898 -0.1717 -0.4228
vn -0.8777 -0.1878 -0.4410
vn -0.5960 -0.4299 -0.6783
vn -0.7776 -0.4605 -0.4281
vn 0.0340 -0.4038 -0.9142
vn -0.7515 -0.6378 -0.1687
vn -0.5868 -0.4573 -0.6682
vn -0.6354 -0.6857 -0.3551
vn -0.5958 -0.7294 -0.3362
vn -0.0000 -0.3850 -0.9229
vt 0.679104 0.265679
vt 0.654724 0.458363
vt 0.663638 0.395967
vt 0.645810 0.290118
vt 0.614613 0.185382
vt 0.741986 0.348437
vt 0.593823 0.106951
vt 0.756652 0.431603
vt 0.797631 0.294975
vt 0.626083 0.435916
vt 0.755939 0.353037
vt 0.593598 0.357351
vt 0.737948 0.265015
vt 0.595282 0.269328
vt 0.612950 0.188882
vt 0.700032 0.184569
vt 0.848195 0.308282
vt 0.545046 0.272157
vt 0.539440 0.388628
vt 0.410989 0.265679
vt 0.424156 0.458363
vt 0.415243 0.395967
vt 0.433070 0.290118
vt 0.464268 0.185382
vt 0.633220 0.348437
vt 0.485058 0.106951
vt 0.539440 0.306176
vt 0.539440 0.189185
vt 0.322228 0.431603
vt 0.292461 0.294975
vt 0.626083 0.435916
vt 0.322941 0.353037
vt 0.593598 0.357351
vt 0.340933 0.265015
vt 0.595282 0.269328
vt 0.612950 0.188882
vt 0.378848 0.184569
vt 0.527011 0.308282
vt 0.791898 0.252376
vt 0.668856 0.259976
vt 0.921075 0.252376
vt 0.844216 0.344714
vt 0.668856 0.383312
vt 0.675217 0.344714
vt 0.788258 0.344714
vt 0.587112 0.344714
vt 0.679104 0.423749
vt 0.654724 0.458363
vt 0.663638 0.395967
vt 0.645810 0.290118
vt 0.614613 0.185382
vt 0.741986 0.156315
vt 0.593823 0.106951
vt 0.756652 0.431603
vt 0.797631 0.394453
vt 0.711629 0.435916
vt 0.755939 0.353037
vt 0.744114 0.357351
vt 0.737948 0.265015
vt 0.742430 0.269328
vt 0.724762 0.188882
vt 0.700032 0.184569
vt 0.848195 0.196470
vt 0.583308 0.252376
vt 0.545046 0.417270
vt 0.539440 0.388628
vt 0.668856 0.259976
vt 0.454131 0.252376
vt 0.245876 0.344714
vt 0.668856 0.383312
vt 0.414876 0.344714
vt 0.301835 0.344714
vt 0.545046 0.344714
vt 0.502980 0.344714
vt 0.410989 0.423749
vt 0.424156 0.458363
vt 0.415243 0.395967
vt 0.433070 0.290118
vt 0.464268 0.185382
vt 0.633220 0.156315
vt 0.485058 0.106951
vt 0.539440 0.306176
vt 0.539440 0.189185
vt 0.687603 0.252376
vt 0.322228 0.431603
vt 0.292461 0.394453
vt 0.711629 0.435916
vt 0.322941 0.353037
vt 0.744114 0.357351
vt 0.340933 0.265015
vt 0.742430 0.269328
vt 0.724762 0.188882
vt 0.378848 0.184569
vt 0.527011 0.196470
s 0
f 43/73/1 10/18/1 27/46/1
f 27/46/2 1/1/2 25/44/2
f 27/46/3 10/18/3 1/1/3
f 25/44/4 1/1/4 26/45/4
f 6/9/5 26/45/5 1/1/5
f 1/2/6 10/19/6 2/3/6
f 1/2/7 2/3/7 6/8/7
f 10/19/8 16/27/8 2/3/8
f 6/8/9 2/3/9 7/11/9
f 2/3/10 16/27/10 3/4/10
f 16/27/11 17/28/11 3/4/11
f 3/4/12 17/28/12 4/5/12
f 2/3/13 3/4/13 7/11/13
f 26/45/14 6/9/14 24/42/14
f 6/10/15 7/12/15 24/43/15
f 7/11/16 3/4/16 8/13/16
f 3/4/17 4/5/17 8/13/17
f 24/43/18 7/12/18 23/40/18
f 7/12/19 8/14/19 23/40/19
f 8/13/20 4/5/20 9/16/20
f 9/15/21 23/40/21 8/14/21
f 5/7/22 4/5/22 17/28/22
f 52/84/23 5/6/23 15/25/23
f 22/39/24 23/41/24 9/17/24
f 4/5/25 5/7/25 9/16/25
f 9/17/26 5/6/26 22/39/26
f 5/6/27 52/84/27 22/39/27
f 43/73/28 44/74/28 10/18/28
f 44/74/29 41/71/29 11/20/29
f 44/74/30 11/20/30 10/18/30
f 41/71/31 42/72/31 11/20/31
f 18/30/32 11/20/32 42/72/32
f 11/21/33 12/22/33 10/19/33
f 11/21/34 18/29/34 12/22/34
f 10/19/35 12/22/35 16/27/35
f 18/29/36 19/32/36 12/22/36
f 12/22/37 13/23/37 16/27/37
f 16/27/38 13/23/38 17/28/38
f 13/23/39 14/24/39 17/28/39
f 12/22/40 19/32/40 13/23/40
f 42/72/41 40/69/41 18/30/41
f 18/31/42 40/70/42 19/33/42
f 19/32/43 20/34/43 13/23/43
f 13/23/44 20/34/44 14/24/44
f 40/70/45 39/67/45 19/33/45
f 19/33/46 39/67/46 20/35/46
f 20/34/47 21/37/47 14/24/47
f 21/36/48 20/35/48 39/67/48
f 15/26/49 17/28/49 14/24/49
f 37/64/50 21/38/50 39/68/50
f 14/24/51 21/37/51 15/26/51
f 21/38/52 37/64/52 15/25/52
f 15/25/53 37/64/53 52/84/53
f 5/7/54 17/28/54 15/26/54
f 43/73/55 27/46/55 38/65/55
f 27/46/56 25/44/56 28/47/56
f 27/46/57 28/47/57 38/65/57
f 25/44/58 26/45/58 28/47/58
f 33/55/59 28/47/59 26/45/59
f 28/48/60 29/49/60 38/66/60
f 28/48/61 33/54/61 29/49/61
f 38/66/62 29/49/62 50/82/62
f 33/54/63 34/57/63 29/49/63
f 29/49/64 30/50/64 50/82/64
f 50/82/65 30/50/65 51/83/65
f 30/50/66 31/51/66 51/83/66
f 29/49/67 34/57/67 30/50/67
f 26/45/68 24/42/68 33/55/68
f 33/56/69 24/43/69 34/58/69
f 34/57/70 35/59/70 30/50/70
f 30/50/71 35/59/71 31/51/71
f 24/43/72 23/40/72 34/58/72
f 34/58/73 23/40/73 35/60/73
f 35/59/74 36/62/74 31/51/74
f 36/61/75 35/60/75 23/40/75
f 32/53/76 51/83/76 31/51/76
f 52/84/77 49/80/77 32/52/77
f 22/39/78 36/63/78 23/41/78
f 31/51/79 36/62/79 32/53/79
f 36/63/80 22/39/80 32/52/80
f 32/52/81 22/39/81 52/84/81
f 43/73/82 38/65/82 44/74/82
f 44/74/83 45/75/83 41/71/83
f 44/74/84 38/65/84 45/75/84
f 41/71/85 45/75/85 42/72/85
f 53/86/86 42/72/86 45/75/86
f 45/76/87 38/66/87 46/77/87
f 45/76/88 46/77/88 53/85/88
f 38/66/89 50/82/89 46/77/89
f 53/85/90 46/77/90 54/88/90
f 46/77/91 50/82/91 47/78/91
f 50/82/92 51/83/92 47/78/92
f 47/78/93 51/83/93 48/79/93
f 46/77/94 47/78/94 54/88/94
f 42/72/95 53/86/95 40/69/95
f 53/87/96 54/89/96 40/70/96
f 54/88/97 47/78/97 55/90/97
f 47/78/98 48/79/98 55/90/98
f 40/70/99 54/89/99 39/67/99
f 54/89/100 55/91/100 39/67/100
f 55/90/101 48/79/101 56/93/101
f 56/92/102 39/67/102 55/91/102
f 49/81/103 48/79/103 51/83/103
f 37/64/104 39/68/104 56/94/104
f 48/79/105 49/81/105 56/93/105
f 56/94/106 49/80/106 37/64/106
f 49/80/107 52/84/107 37/64/107
f 32/53/108 49/81/108 51/83/108
